<svg
    
    width="24"
    height="25"
    viewBox="0 0 24 25"
    fill="none"
    xmlns="http://www.w3.org/2000/svg"
>
    <g clipPath="url(#clip0_740_112)">
    <path
        d="M18.0009 3.45898L15.0977 6.47852C14.5459 7.05273 14.5459 7.98437 15.0977 8.55859L15.3783 8.84961C15.9283 9.42188 16.8187 9.42188 17.3686 8.84766L20.2942 5.79102C21.1098 4.9375 22.0863 4.35547 23.1955 4.09766V1.01953C21.2239 1.13086 19.4057 1.99609 18.0009 3.45898Z"
        fill="url(#paint0_linear_740_112)"
    />
    <path
        d="M4.97399 15.5977C4.40346 16.1934 3.66644 16.127 3.1726 15.6113C2.67876 15.0957 2.61516 14.3262 3.1857 13.7305C3.84976 13.0371 5.98785 12.6699 5.98785 12.6699C5.98785 12.6699 5.63057 14.9121 4.97399 15.5977Z"
        fill="#00B0FF"
    />
    <path
        d="M7.765 18.5117C7.19447 19.1074 6.45745 19.041 5.96362 18.5254C5.46978 18.0098 5.40618 17.2402 5.97671 16.6445C6.64077 15.9512 8.77887 15.584 8.77887 15.584C8.77887 15.584 8.42158 17.8262 7.765 18.5117Z"
        fill="#00B0FF"
    />
    <path
        d="M10.5951 21.4668C10.0245 22.0625 9.28753 21.9961 8.79369 21.4805C8.29986 20.9648 8.23626 20.1953 8.80679 19.5996C9.47085 18.9063 11.6089 18.5391 11.6089 18.5391C11.6089 18.5391 11.2517 20.7813 10.5951 21.4668Z"
        fill="#00B0FF"
    />
    <path
        d="M3.00036 20.4727C2.42982 21.0684 1.69281 21.002 1.19897 20.4863C0.70513 19.9707 0.64153 19.2012 1.21206 18.6055C1.87613 17.9121 4.01422 17.5449 4.01422 17.5449C4.01422 17.5449 3.65694 19.7871 3.00036 20.4727Z"
        fill="#4FC3F7"
    />
    <path
        d="M5.92589 23.5254C5.35536 24.1211 4.61834 24.0547 4.12451 23.5391C3.63067 23.0234 3.56707 22.2539 4.1376 21.6582C4.80166 20.9648 6.93976 20.5977 6.93976 20.5977C6.93976 20.5977 6.58247 22.8418 5.92589 23.5254Z"
        fill="#4FC3F7"
    />
    <g opacity="0.2">
        <path
        d="M5.51443 13.166C5.34046 13.9727 5.04304 14.9746 4.71007 15.3223C4.51553 15.5254 4.29293 15.6328 4.06659 15.6328C3.84398 15.6328 3.61951 15.5273 3.43806 15.3379C3.26036 15.1523 3.15935 14.9238 3.1556 14.6973C3.15186 14.4551 3.25288 14.2168 3.45303 14.0098C3.78787 13.6563 4.74374 13.3438 5.51443 13.166ZM5.98956 12.6699C5.98956 12.6699 3.85147 13.0352 3.1874 13.7305C2.61687 14.3262 2.68047 15.0957 3.17431 15.6113C3.42684 15.875 3.74297 16.0215 4.06846 16.0215C4.37898 16.0215 4.69698 15.8887 4.9757 15.5977C5.63041 14.9121 5.98956 12.6699 5.98956 12.6699Z"
        fill="#424242"
        />
        <path
        d="M8.30545 16.0801C8.13148 16.8867 7.83405 17.8887 7.50109 18.2363C7.30655 18.4395 7.08394 18.5469 6.8576 18.5469C6.635 18.5469 6.41053 18.4414 6.22908 18.252C6.05137 18.0664 5.95036 17.8379 5.94662 17.6113C5.94288 17.3691 6.04389 17.1309 6.24405 16.9238C6.57888 16.5703 7.53476 16.2578 8.30545 16.0801ZM8.78058 15.584C8.78058 15.584 6.64248 15.9492 5.97842 16.6445C5.40789 17.2402 5.47149 18.0098 5.96533 18.5254C6.21786 18.7891 6.53399 18.9355 6.85947 18.9355C7.16999 18.9355 7.48799 18.8027 7.76671 18.5117C8.42142 17.8262 8.78058 15.584 8.78058 15.584Z"
        fill="#424242"
        />
        <path
        d="M11.1355 19.0352C10.9616 19.8418 10.6641 20.8438 10.3312 21.1914C10.1366 21.3945 9.91402 21.502 9.68768 21.502C9.46508 21.502 9.24061 21.3965 9.05916 21.207C8.88145 21.0215 8.78044 20.793 8.7767 20.5664C8.77296 20.3242 8.87397 20.0859 9.07412 19.8789C9.40896 19.5254 10.3648 19.2129 11.1355 19.0352ZM11.6107 18.5391C11.6107 18.5391 9.47256 18.9043 8.8085 19.5996C8.23797 20.1953 8.30157 20.9648 8.7954 21.4805C9.04794 21.7441 9.36407 21.8906 9.68955 21.8906C10.0001 21.8906 10.3181 21.7578 10.5968 21.4668C11.2515 20.7813 11.6107 18.5391 11.6107 18.5391Z"
        fill="#424242"
        />
    </g>
    <path
        opacity="0.2"
        d="M3.54104 18.041C3.36708 18.8477 3.06965 19.8496 2.73668 20.1973C2.54214 20.4004 2.31954 20.5078 2.0932 20.5078C1.8706 20.5078 1.64612 20.4023 1.46468 20.2129C1.28697 20.0273 1.18596 19.7988 1.18222 19.5723C1.17847 19.3301 1.27949 19.0918 1.47964 18.8848C1.81448 18.5313 2.77222 18.2207 3.54104 18.041ZM4.01617 17.5449C4.01617 17.5449 1.87808 17.9102 1.21402 18.6055C0.643483 19.2012 0.707084 19.9707 1.20092 20.4863C1.45345 20.75 1.76958 20.8965 2.09507 20.8965C2.40559 20.8965 2.72359 20.7637 3.00231 20.4727C3.65702 19.7871 4.01617 17.5449 4.01617 17.5449Z"
        fill="#424242"
    />
    <path
        opacity="0.2"
        d="M6.46658 21.0937C6.29261 21.9004 5.99519 22.9023 5.66222 23.25C5.46768 23.4531 5.24508 23.5605 5.01873 23.5605C4.79613 23.5605 4.57166 23.4551 4.39021 23.2656C4.21251 23.0801 4.11149 22.8516 4.10775 22.625C4.10401 22.3828 4.20502 22.1445 4.40518 21.9375C4.73814 21.584 5.69589 21.2734 6.46658 21.0937ZM6.94171 20.5996C6.94171 20.5996 4.80362 20.9648 4.13955 21.6602C3.56902 22.2559 3.63262 23.0254 4.12646 23.541C4.37899 23.8047 4.69512 23.9512 5.02061 23.9512C5.33112 23.9512 5.64913 23.8184 5.92785 23.5273C6.58256 22.8418 6.94171 20.5996 6.94171 20.5996Z"
        fill="#424242"
    />
    <path
        d="M17.0392 7.06616C13.8124 3.69702 8.52426 3.75171 5.34424 7.02515L17.0785 19.2751C20.2136 15.9568 20.266 10.4353 17.0392 7.06616Z"
        fill="url(#paint1_radial_740_112)"
    />
    <path
        opacity="0.2"
        d="M22.6342 1.75781V3.64648C21.611 3.96484 20.6925 4.54688 19.8957 5.37891L19.067 6.24609C18.8481 6.47461 18.8481 6.8457 19.067 7.07422C19.1642 7.17578 19.1642 7.33984 19.067 7.43945L18.0063 8.54687C17.8286 8.73242 17.7912 9.01758 17.9128 9.24609C19.4411 12.125 19.1381 15.7676 17.1571 18.3066C17.0131 18.4902 16.9906 18.748 17.0991 18.957C17.2001 19.1504 17.1683 19.3828 17.0224 19.5352C16.9345 19.627 16.8166 19.6777 16.6913 19.6777C16.566 19.6777 16.4481 19.627 16.3602 19.5352L5.19088 7.87109C5.10296 7.7793 5.05432 7.65625 5.05432 7.52539C5.05432 7.39453 5.10296 7.27148 5.19088 7.17969C5.2788 7.08789 5.39477 7.03711 5.5201 7.03711C5.57809 7.03711 5.63421 7.04688 5.68846 7.06836C5.75206 7.09375 5.8194 7.10547 5.88487 7.10547C6.01394 7.10547 6.13927 7.05859 6.24215 6.97266C7.6133 5.79297 9.36792 5.14258 11.1805 5.14258C12.3946 5.14258 13.6011 5.4375 14.6692 5.99609C14.7496 6.03711 14.8357 6.05859 14.9199 6.05859C15.0658 6.05859 15.2098 6 15.3164 5.88672L16.4481 4.70508C16.5117 4.63867 16.5847 4.62891 16.624 4.62891C16.6633 4.62891 16.7362 4.63867 16.8017 4.70703C16.912 4.82031 17.0542 4.87891 17.1982 4.87891C17.3423 4.87891 17.4845 4.82227 17.5948 4.70703L18.3973 3.87305C19.5795 2.64258 21.0348 1.93359 22.6342 1.71094M23.1954 1.01953C21.2238 1.13086 19.4056 1.99414 18.0007 3.45703L17.1982 4.29102L17.1964 4.28906C17.0392 4.125 16.8316 4.04102 16.624 4.04102C16.4163 4.04102 16.2106 4.12305 16.0516 4.28906L14.9217 5.46875V5.4707C13.7489 4.85742 12.4638 4.55469 11.1805 4.55469C9.28749 4.55469 7.40005 5.21484 5.88487 6.51758C5.76702 6.4707 5.64356 6.44922 5.5201 6.44922C5.25822 6.44922 4.99446 6.55273 4.79431 6.76172C4.39213 7.18164 4.39213 7.86328 4.79431 8.2832L15.9637 19.9453C16.1657 20.1562 16.4276 20.2598 16.6913 20.2598C16.9551 20.2598 17.2188 20.1543 17.419 19.9453C17.7501 19.5996 17.8043 19.082 17.5911 18.6738C19.731 15.9297 20.0322 12.0254 18.4029 8.95898L19.4635 7.85156C19.7797 7.52148 19.7797 6.98828 19.4635 6.6582L20.2922 5.79102C21.1078 4.9375 22.0843 4.35547 23.1935 4.09766V1.01953H23.1954Z"
        fill="#424242"
    />
    <path
        d="M19.4637 6.6582L17.1965 4.29102C16.8804 3.96094 16.3678 3.96094 16.0517 4.29102L14.9219 5.4707V5.47266C15.6869 5.87305 16.4034 6.40234 17.0413 7.06641C17.5931 7.64258 18.0458 8.28125 18.4068 8.96094L19.4674 7.85352C19.7798 7.52344 19.7798 6.98828 19.4637 6.6582Z"
        fill="#78909C"
    />
    <path
        opacity="0.2"
        d="M16.6241 4.62891C16.6615 4.62891 16.7364 4.63867 16.8 4.70508L19.0671 7.07227C19.1307 7.13867 19.1401 7.21484 19.1401 7.25586C19.1401 7.29688 19.1307 7.37305 19.0671 7.43945L18.5116 8.01953C18.1954 7.52734 17.8363 7.06836 17.436 6.65039C16.9552 6.14844 16.4221 5.70898 15.8422 5.33789L16.4483 4.70508C16.5119 4.63867 16.5867 4.62891 16.6241 4.62891ZM16.6241 4.04297C16.4165 4.04297 16.2107 4.125 16.0517 4.29102L14.9219 5.4707V5.47266C15.6869 5.87305 16.4034 6.40234 17.0413 7.06641C17.5931 7.64258 18.0458 8.28125 18.4068 8.96094L19.4674 7.85352C19.7836 7.52344 19.7836 6.98828 19.4674 6.6582L17.1965 4.29102C17.0375 4.125 16.8318 4.04297 16.6241 4.04297Z"
        fill="#424242"
    />
    <path
        d="M16.0141 20L4.74372 8.23242C4.3696 7.8418 4.3696 7.20898 4.74372 6.81641L4.84474 6.71094C5.21886 6.32031 5.82493 6.32031 6.20092 6.71094L17.4713 18.4785C17.8454 18.8691 17.8454 19.502 17.4713 19.8945L17.3703 20C16.9943 20.3906 16.3882 20.3906 16.0141 20Z"
        fill="#78909C"
    />
    <path
        opacity="0.2"
        d="M5.52189 7.00391C5.62852 7.00391 5.72766 7.04687 5.80248 7.125L17.0728 18.8926C17.1477 18.9707 17.1888 19.0742 17.1888 19.1855C17.1888 19.2969 17.1477 19.4004 17.0728 19.4785L16.9718 19.584C16.897 19.6621 16.7979 19.7051 16.6912 19.7051C16.5846 19.7051 16.4855 19.6621 16.4106 19.584L5.14029 7.81836C5.06547 7.74023 5.02431 7.63672 5.02431 7.52539C5.02431 7.41406 5.06547 7.31055 5.14029 7.23242L5.2413 7.12695C5.31613 7.04688 5.41527 7.00391 5.52189 7.00391ZM5.52189 6.41797C5.27685 6.41797 5.0318 6.51562 4.84474 6.71094L4.74372 6.81641C4.3696 7.20703 4.3696 7.83984 4.74372 8.23242L16.0141 20C16.2011 20.1953 16.4462 20.293 16.6912 20.293C16.9363 20.293 17.1813 20.1953 17.3684 20L17.4694 19.8945C17.8435 19.5039 17.8435 18.8691 17.4694 18.4785L6.19905 6.71094C6.01199 6.51562 5.76694 6.41797 5.52189 6.41797Z"
        fill="#424242"
    />
    </g>
    <defs>
    <linearGradient
        id="paint0_linear_740_112"
        x1="22.5202"
        y1="1.46541"
        x2="18.3173"
        y2="5.83473"
        gradientUnits="userSpaceOnUse"
    >
        <stop stop-color="#ECEFF1" />
        <stop offset="1" stop-color="#B0BEC5" />
    </linearGradient>
    <radialGradient
        id="paint1_radial_740_112"
        cx="0"
        cy="0"
        r="1"
        gradientUnits="userSpaceOnUse"
        gradientTransform="translate(4.89904 0.658137) scale(11.4449 11.9498)"
    >
        <stop stop-color="#ECEFF1" />
        <stop offset="0.268" stop-color="#E8ECEE" />
        <stop offset="0.5195" stop-color="#DDE3E6" />
        <stop offset="0.7635" stop-color="#CAD3D8" />
        <stop offset="1" stop-color="#B0BEC5" />
    </radialGradient>
    <clipPath id="clip0_740_112">
        <rect width="23.9437" height="25" fill="white" />
    </clipPath>
    </defs>
</svg>