<svg
    
    width="20"
    height="20"
    viewBox="0 0 20 20"
    fill="none"
    xmlns="http://www.w3.org/2000/svg"
>
    <g clipPath="url(#clip0_740_99)">
    <path
        d="M11.9924 19.9884C14.0787 19.8664 16.0512 18.8628 17.5283 17.1719C19.0055 15.4811 19.8821 13.2231 19.9888 10.835C17.8683 10.836 15.8349 11.8007 14.3355 13.5171C12.8361 15.2334 11.9933 17.5611 11.9924 19.9884Z"
        fill="#C6C6C6"
    />
    <path
        d="M0.0117188 10.835C0.118151 13.2232 0.994785 15.4813 2.47195 17.1722C3.94911 18.8631 5.92175 19.8666 8.00805 19.9884C8.00717 17.5611 7.16442 15.2334 5.665 13.5171C4.16559 11.8007 2.13221 10.836 0.0117188 10.835Z"
        fill="#C6C6C6"
    />
    <path
        d="M0 10.3425C0 10.508 0.00374984 10.6712 0.0108329 10.8347C2.13119 10.8364 4.1643 11.8013 5.66366 13.5175C7.16302 15.2337 8.00604 17.561 8.00758 19.9882C8.15008 19.9964 8.29327 20.0004 8.43715 20.0001H11.562C11.7062 20.0001 11.8495 19.9958 11.992 19.9882C11.9929 17.5608 12.8356 15.2332 14.335 13.5168C15.8345 11.8005 17.8678 10.8358 19.9883 10.8347C19.9954 10.6712 19.9992 10.5076 19.9992 10.3425V2.91992H0L0 10.3425Z"
        fill="#E2E2E2"
    />
    <path
        d="M19.0621 0H0.937878C0.689209 -2.80888e-08 0.450719 0.113045 0.274845 0.314279C0.0989711 0.515514 0.00011047 0.788463 0 1.07311L0 2.9203H19.9992V1.07311C19.9992 0.78859 19.9005 0.515711 19.7247 0.314477C19.549 0.113242 19.3107 0.000126456 19.0621 0Z"
        fill="#59C5EF"
    />
    <path
        d="M5.48894 5.10303H0V8.754H5.48894C5.91165 8.75375 6.31699 8.56142 6.61589 8.21926C6.9148 7.8771 7.08282 7.41311 7.08304 6.92923C7.08304 6.44514 6.91513 5.98085 6.61621 5.63842C6.3173 5.29598 5.91183 5.10341 5.48894 5.10303Z"
        fill="#59C5EF"
    />
    <path
        d="M12.916 6.92923C12.916 7.16903 12.9573 7.40648 13.0375 7.62802C13.1176 7.84955 13.2352 8.05084 13.3833 8.22038C13.5315 8.38992 13.7073 8.5244 13.9009 8.61612C14.0944 8.70784 14.3019 8.75502 14.5114 8.75496H19.9991V5.10303H14.5118C14.3022 5.1029 14.0947 5.15005 13.9011 5.24177C13.7074 5.3335 13.5315 5.468 13.3833 5.6376C13.2351 5.8072 13.1176 6.00856 13.0374 6.23019C12.9572 6.45181 12.916 6.68935 12.916 6.92923Z"
        fill="#59C5EF"
    />
    <path
        d="M2.50073 5.104H4.58398V8.75498H2.50073V5.104Z"
        fill="#2BA0BF"
    />
    <path
        d="M15.4165 5.104H17.4998V8.75498H15.4165V5.104Z"
        fill="#2BA0BF"
    />
    </g>
    <defs>
    <clipPath id="clip0_740_99">
        <rect width="20" height="20" fill="white" />
    </clipPath>
    </defs>
</svg>