<svg
                  
    width="25"
    height="25"
    viewBox="0 0 25 25"
    fill="none"
    xmlns="http://www.w3.org/2000/svg"
>
    <path
    d="M2.31466 1.21087C1.66957 1.914 0.341444 6.32806 5.91957 12.1093C7.70305 13.9452 9.03118 12.5781 10.1316 13.7499L20.1115 24.0234C20.1115 24.0234 22.2745 23.2812 22.616 21.4062L2.84591 1.01556C2.84591 1.01556 2.65618 0.859309 2.31466 1.21087Z"
    fill="#94989B"
    />
    <path
    d="M23.451 4.29675C23.7166 3.78894 23.1095 3.94519 23.1095 3.94519C23.1095 3.94519 19.0872 7.92956 18.518 7.46081C17.9488 6.99206 22.4644 3.16394 21.9332 2.42175C21.4398 1.75769 17.4934 6.52331 17.0001 5.93738C16.5448 5.35144 20.3773 1.21081 20.3773 1.21081C20.3773 1.21081 20.5291 0.585815 20.0358 0.859252C13.9644 4.21863 13.2055 7.34363 13.2055 7.34363C13.2055 7.34363 12.9778 7.96863 13.4332 8.43738C13.4711 8.47644 2.35279 19.8827 0.872884 21.4061C0.151901 22.1483 2.80815 24.8436 3.52913 24.1014C5.00905 22.578 16.0515 11.0936 16.0894 11.1327C16.5448 11.6014 17.1519 11.4061 17.1519 11.4061C17.1519 11.4061 20.1876 10.5858 23.451 4.29675Z"
    fill="#B2C1C0"
    />
</svg>