<svg
    width="24"
    height="25"
    viewBox="0 0 24 25"
    fill="none"
    xmlns="http://www.w3.org/2000/svg"
>
    <path
    d="M21.2126 15.2032C21.7875 15.8035 22.2036 16.5493 22.42 17.3677C22.6365 18.1861 22.6461 19.0491 22.4478 19.8724C22.2495 20.6958 21.8502 21.4515 21.2887 22.0656C20.7272 22.6797 20.0228 23.1313 19.2443 23.3764C18.4658 23.6214 17.6397 23.6515 16.8467 23.4638C16.0537 23.276 15.3209 22.8767 14.7198 22.3049C14.1187 21.7332 13.6698 21.0084 13.4171 20.2015C13.1643 19.3945 13.1162 18.5329 13.2775 17.7008C13.3175 17.4934 13.3076 17.279 13.2489 17.0765C13.1901 16.8741 13.0843 16.69 12.9408 16.5407L1.95536 5.07034C1.76486 4.87147 1.61375 4.63537 1.51065 4.37552C1.40756 4.11567 1.35449 3.83715 1.35449 3.55589C1.35449 3.27462 1.40756 2.99611 1.51065 2.73626C1.61375 2.47641 1.76486 2.24031 1.95536 2.04144C2.14582 1.84254 2.37195 1.68476 2.62082 1.57711C2.86969 1.46947 3.13644 1.41406 3.40582 1.41406C3.6752 1.41406 3.94194 1.46947 4.19082 1.57711C4.43969 1.68476 4.66581 1.84254 4.85628 2.04144L15.8419 13.5116C15.985 13.6613 16.1613 13.7718 16.3552 13.8332C16.5491 13.8945 16.7545 13.9048 16.9531 13.8631C17.7138 13.7014 18.5011 13.7391 19.2445 13.973C19.9879 14.2068 20.6641 14.6295 21.2126 15.2032Z"
    fill="#ECECEC"
    />
    <path
    d="M1.95536 5.07041L12.9408 16.5407C13.0843 16.6901 13.1901 16.8742 13.2489 17.0766C13.3076 17.279 13.3175 17.4935 13.2775 17.7009C13.0768 18.7349 13.2004 19.8089 13.63 20.7638C14.0595 21.7187 14.7722 22.5038 15.6625 23.0028C16.5528 23.5018 17.5733 23.6881 18.5729 23.5342C19.5726 23.3803 20.4982 22.8944 21.2126 22.1483L1.95536 2.0415C1.76486 2.24037 1.61375 2.47648 1.51065 2.73633C1.40756 2.99618 1.35449 3.27469 1.35449 3.55596C1.35449 3.83722 1.40756 4.11573 1.51065 4.37559C1.61375 4.63544 1.76486 4.87154 1.95536 5.07041Z"
    fill="#E0D5CE"
    />
    <path
    d="M19.9033 20.7812C19.4698 21.2333 18.9085 21.5277 18.3023 21.6208C17.6961 21.714 17.0774 21.6009 16.5375 21.2984C15.9977 20.9959 15.5654 20.52 15.3047 19.941C15.0441 19.3621 14.9688 18.711 15.09 18.0839C15.1911 17.5642 15.1672 17.0263 15.0203 16.5186C14.8734 16.0109 14.6081 15.5492 14.2483 15.1749L3.26335 3.7046C3.24428 3.68516 3.22909 3.66195 3.21867 3.63633C3.20825 3.61071 3.2028 3.58319 3.20264 3.55535C3.20248 3.52752 3.20762 3.49993 3.21774 3.47418C3.22787 3.44844 3.24279 3.42504 3.26164 3.40536C3.28049 3.38568 3.3029 3.3701 3.32756 3.35952C3.35222 3.34895 3.37864 3.34359 3.4053 3.34375C3.43196 3.34392 3.45832 3.34961 3.48286 3.36049C3.50739 3.37137 3.52962 3.38723 3.54824 3.40714L14.5346 14.8775C14.8933 15.2533 15.3357 15.5304 15.8221 15.6838C16.3086 15.8372 16.8239 15.8621 17.3218 15.7564C17.9221 15.6306 18.5452 15.7097 19.0991 15.9821C19.6529 16.2545 20.1082 16.7057 20.3976 17.269C20.687 17.8323 20.7952 18.4779 20.7061 19.1104C20.6171 19.7428 20.3356 20.3286 19.9033 20.7812Z"
    fill="#F74141"
    />
    <path
    d="M5.1897 2.38965L4.80323 2.79316C4.76848 2.82943 4.74092 2.87249 4.72211 2.91988C4.7033 2.96727 4.69361 3.01807 4.6936 3.06936C4.69359 3.12066 4.70326 3.17146 4.72206 3.21886C4.74085 3.26626 4.7684 3.30933 4.80314 3.34561C4.83787 3.38189 4.87911 3.41067 4.9245 3.43031C4.96989 3.44995 5.01854 3.46006 5.06767 3.46007C5.1168 3.46008 5.16545 3.44998 5.21084 3.43036C5.25624 3.41074 5.29749 3.38197 5.33224 3.3457L5.7187 2.94238L5.1897 2.38965Z"
    fill="#474444"
    />
    <path
    d="M7.05051 4.33252L6.66404 4.73604C6.6293 4.77232 6.60173 4.81539 6.58293 4.86279C6.56412 4.91019 6.55444 4.961 6.55444 5.0123C6.55444 5.06361 6.56412 5.11442 6.58293 5.16182C6.60173 5.20922 6.6293 5.25229 6.66404 5.28857C6.73422 5.36185 6.8294 5.40301 6.92864 5.40301C6.97778 5.40301 7.02644 5.3929 7.07184 5.37327C7.11724 5.35363 7.15849 5.32485 7.19324 5.28857L7.5797 4.88506L7.05051 4.33252Z"
    fill="#474444"
    />
    <path
    d="M8.90744 6.27148L8.52116 6.675C8.45532 6.74914 8.41958 6.84705 8.42146 6.94813C8.42333 7.04922 8.46267 7.14561 8.5312 7.21704C8.59973 7.28847 8.69212 7.32937 8.78893 7.33115C8.88575 7.33292 8.97946 7.29543 9.05035 7.22656L9.43663 6.82305L8.90744 6.27148Z"
    fill="#474444"
    />
    <path
    d="M10.7686 8.21484L10.382 8.61836C10.3118 8.69163 10.2724 8.791 10.2725 8.8946C10.2725 8.9982 10.3119 9.09756 10.3821 9.1708C10.4523 9.24405 10.5474 9.28518 10.6467 9.28517C10.7459 9.28515 10.841 9.24397 10.9112 9.1707L11.2986 8.76719L10.7686 8.21484Z"
    fill="#474444"
    />
    <path
    d="M12.6276 10.1562L12.2412 10.5598C12.2054 10.5958 12.1769 10.6389 12.1573 10.6866C12.1377 10.7342 12.1274 10.7855 12.127 10.8373C12.1265 10.8892 12.136 10.9406 12.1548 10.9887C12.1736 11.0367 12.2014 11.0803 12.2365 11.117C12.2717 11.1536 12.3134 11.1826 12.3594 11.2023C12.4054 11.2219 12.4546 11.2318 12.5043 11.2313C12.554 11.2309 12.6031 11.2201 12.6487 11.1996C12.6944 11.1792 12.7357 11.1494 12.7702 11.1121L13.1566 10.7086L12.6276 10.1562Z"
    fill="#474444"
    />
    <path
    d="M15 12.6326L14.4708 12.0801L14.0844 12.4836C14.0142 12.5569 13.9748 12.6563 13.9749 12.7599C13.9749 12.8635 14.0143 12.9629 14.0845 13.0361C14.1547 13.1094 14.2499 13.1505 14.3492 13.1505C14.4484 13.1504 14.5436 13.1092 14.6137 13.0359L15 12.6326Z"
    fill="#474444"
    />
    <path
    d="M3.26327 3.70469L14.2489 15.1758C14.6088 15.5501 14.874 16.0118 15.0209 16.5195C15.1678 17.0272 15.1918 17.565 15.0907 18.0848C14.9699 18.7116 15.0455 19.3624 15.3062 19.9409C15.567 20.5195 15.9991 20.9951 16.5387 21.2974C17.0783 21.5998 17.6968 21.7128 18.3026 21.6199C18.9085 21.5269 19.4697 21.2329 19.9032 20.7812L3.26327 3.40723C3.22554 3.4467 3.20435 3.50019 3.20435 3.55596C3.20435 3.61172 3.22554 3.66521 3.26327 3.70469Z"
    fill="#EF3030"
    />
</svg>