<svg
  width="24"
  height="25"
  viewBox="0 0 24 25"
  fill="none"
  xmlns="http://www.w3.org/2000/svg"
>
  <g clip-path="url(#clip0_740_175)">
    <path
      d="M13.8536 22.5508C15.9823 24.7734 19.4672 24.7734 21.5978 22.5508C23.7266 20.3281 23.7266 16.6895 21.5978 14.4648L15.8439 8.45703L8.09961 16.543L13.8536 22.5508Z"
      fill="url(#paint0_radial_740_175)"
    />
    <path
      d="M15.8441 8.45703L10.0901 2.44922C7.96136 0.226562 4.47644 0.226562 2.34582 2.44922C0.217082 4.67188 0.217082 8.31055 2.34582 10.5352L8.09978 16.543L15.8441 8.45703Z"
      fill="url(#paint1_radial_740_175)"
    />
    <path
      opacity="0.2"
      d="M6.21796 1.36719C7.53486 1.36719 8.76946 1.89844 9.69353 2.86328L21.2015 14.8789C22.1255 15.8438 22.6343 17.1328 22.6343 18.5078C22.6343 19.8828 22.1255 21.1719 21.2015 22.1367C20.2774 23.1016 19.0428 23.6328 17.7259 23.6328C16.409 23.6328 15.1744 23.1016 14.2503 22.1367L2.74239 10.1211C1.81831 9.15625 1.30951 7.86719 1.30951 6.49219C1.30951 5.11719 1.81831 3.82812 2.74239 2.86328C3.66647 1.89844 4.90106 1.36719 6.21796 1.36719ZM6.21796 0.78125C4.81501 0.78125 3.41019 1.33789 2.34582 2.44922C0.217082 4.67188 0.217082 8.31055 2.34582 10.5352L13.8537 22.5508C14.9181 23.6621 16.3229 24.2188 17.7259 24.2188C19.1288 24.2188 20.5337 23.6621 21.598 22.5508C23.7268 20.3281 23.7268 16.6895 21.598 14.4648L10.0901 2.44922C9.02573 1.33789 7.62091 0.78125 6.21796 0.78125Z"
      fill="#424242"
    />
    <path
      opacity="0.2"
      d="M16.2405 8.87207L8.49607 16.9581L8.09926 16.5438L15.8437 8.45775L16.2405 8.87207Z"
      fill="#424242"
    />
  </g>
  <defs>
    <radialGradient
      id="paint0_radial_740_175"
      cx="0"
      cy="0"
      r="1"
      gradientUnits="userSpaceOnUse"
      gradientTransform="translate(12.7199 12.6302) rotate(50.5573) scale(13.1518 8.63336)"
    >
      <stop stop-color="#EF5350" />
      <stop offset="0.6263" stop-color="#D83534" />
      <stop offset="0.7356" stop-color="#D32F2F" />
      <stop offset="1" stop-color="#D32F2F" />
    </radialGradient>
    <radialGradient
      id="paint1_radial_740_175"
      cx="0"
      cy="0"
      r="1"
      gradientUnits="userSpaceOnUse"
      gradientTransform="translate(3.11755 3.06008) rotate(46.2364) scale(12.802 10.066)"
    >
      <stop stop-color="#FFEB3B" />
      <stop offset="0.349" stop-color="#FEE439" />
      <stop offset="0.6698" stop-color="#FDD835" />
      <stop offset="0.9954" stop-color="#FBC02D" />
    </radialGradient>
    <clipPath id="clip0_740_175">
      <rect width="23.9437" height="25" fill="white" />
    </clipPath>
  </defs>
</svg>