   <svg
              width="50"
              height="50"
              viewBox="0 0 50 50"
              fill="none"
              xmlns="http://www.w3.org/2000/svg"
            >
              <g clipPath="url(#clip0_728_3407)">
                <path
                  d="M45.8333 10.0303C45.8333 8.06646 46.8292 9.0484 47.8111 8.06646C49.7778 6.10257 50.7667 3.15535 48.8028 1.19146C46.8375 -0.772431 43.8944 0.223403 41.9306 2.18729C40.9472 3.16924 41.9333 4.16646 39.9694 4.16646H32.1125L33.0944 5.13451C33.0944 5.13451 38.0056 12.0012 38.9875 11.0192C38.0056 12.0026 44.8639 16.9081 44.8639 16.9081L45.8333 17.8873V10.0303Z"
                  fill="#FFAC33"
                />
                <path
                  d="M42.9153 20.8336L36.0417 13.9586L29.1667 7.08496C28.1847 8.06691 23.2736 7.08496 21.3097 9.04885L20.3278 10.0308L17.3806 12.978L2.24305 28.1141C0.0736056 30.2836 0.0736056 33.803 2.24305 35.9711L14.0278 47.7558C16.1972 49.9252 19.7153 49.9252 21.8847 47.7558L35.6347 34.0072L39.9694 29.6725L40.9514 28.6905C42.9153 26.7252 41.9333 21.8155 42.9153 20.8336Z"
                  fill="#CCD6DD"
                />
                <path
                  d="M45.3708 20.3419C44.0139 21.6988 42.7986 22.6808 41.4431 21.3238L28.6764 8.55716C27.3194 7.20022 28.3028 5.98494 29.6583 4.62799C31.0153 3.27244 33.2125 3.27244 34.5681 4.62799L45.3708 15.4308C46.7278 16.7877 46.7278 18.9863 45.3708 20.3419Z"
                  fill="#55ACEE"
                />
                <path
                  d="M18.0556 44.4446C17.7 44.4446 17.3444 44.3085 17.0736 44.0376C16.5306 43.4946 16.5306 42.6168 17.0736 42.0737L33.7403 25.4071C34.2833 24.864 35.1611 24.864 35.7042 25.4071C36.2472 25.9501 36.2472 26.8293 35.7042 27.3724L19.0375 44.039C18.7667 44.3085 18.4111 44.4446 18.0556 44.4446ZM12.5 38.889C12.1444 38.889 11.7889 38.7529 11.5181 38.4821C10.975 37.939 10.975 37.0612 11.5181 36.5182L28.1847 19.8515C28.7278 19.3085 29.6056 19.3085 30.1486 19.8515C30.6917 20.3946 30.6917 21.2724 30.1486 21.8154L13.4819 38.4835C13.2111 38.7529 12.8556 38.889 12.5 38.889ZM6.94444 33.3335C6.58889 33.3335 6.23333 33.1974 5.9625 32.9265C5.41944 32.3835 5.41944 31.5057 5.9625 30.9626L22.6292 14.296C23.1722 13.7529 24.05 13.7529 24.5931 14.296C25.1361 14.839 25.1361 15.7168 24.5931 16.2599L7.92639 32.9279C7.65555 33.1974 7.3 33.3335 6.94444 33.3335Z"
                  fill="#99AAB5"
                />
              </g>
              <defs>
                <clipPath id="clip0_728_3407">
                  <rect width="50" height="50" fill="white" />
                </clipPath>
              </defs>
            </svg>