<svg
    
    width="25"
    height="25"
    viewBox="0 0 25 25"
    fill="none"
    xmlns="http://www.w3.org/2000/svg"
>
    <g clipPath="url(#clip0_740_85)">
    <path
        d="M22.2618 5.01542C22.2618 4.03347 22.7455 4.52445 23.2225 4.03347C24.1777 3.05153 24.658 1.57792 23.7041 0.595973C22.7496 -0.385971 21.3201 0.111945 20.3662 1.09389C19.8886 1.58486 20.3675 2.08347 19.4136 2.08347H15.5974L16.0744 2.5675C16.0744 2.5675 18.4598 6.00083 18.9367 5.50986C18.4598 6.00153 21.7909 8.45431 21.7909 8.45431L22.2618 8.94389V5.01542Z"
        fill="#FFAC33"
    />
    <path
        d="M20.8444 10.4168L17.5058 6.97929L14.1666 3.54248C13.6896 4.03345 11.3042 3.54248 10.3503 4.52442L9.87338 5.0154L8.44187 6.48901L1.08937 14.0571C0.0356397 15.1418 0.0356397 16.9015 1.08937 17.9855L6.81338 23.8779C7.86711 24.9626 9.57588 24.9626 10.6296 23.8779L17.3082 17.0036L19.4136 14.8362L19.8906 14.3453C20.8444 13.3626 20.3675 10.9078 20.8444 10.4168Z"
        fill="#CCD6DD"
    />
    <path
        d="M22.0372 10.1709C21.3781 10.8494 20.7878 11.3404 20.1294 10.6619L13.9284 4.27858C13.2693 3.60011 13.747 2.99247 14.4054 2.314C15.0645 1.63622 16.1317 1.63622 16.7901 2.314L22.0372 7.71539C22.6963 8.39386 22.6963 9.49316 22.0372 10.1709Z"
        fill="#55ACEE"
    />
    <path
        d="M8.76984 22.2223C8.59714 22.2223 8.42444 22.1542 8.29289 22.0188C8.02913 21.7473 8.02913 21.3084 8.29289 21.0369L16.3881 12.7035C16.6519 12.432 17.0783 12.432 17.342 12.7035C17.6058 12.9751 17.6058 13.4146 17.342 13.6862L9.24678 22.0195C9.11524 22.1542 8.94254 22.2223 8.76984 22.2223ZM6.07143 19.4445C5.89873 19.4445 5.72603 19.3765 5.59448 19.241C5.33071 18.9695 5.33071 18.5306 5.59448 18.2591L13.6897 9.92576C13.9535 9.65423 14.3798 9.65423 14.6436 9.92576C14.9074 10.1973 14.9074 10.6362 14.6436 10.9077L6.54837 19.2417C6.41682 19.3765 6.24412 19.4445 6.07143 19.4445ZM3.37301 16.6667C3.20032 16.6667 3.02762 16.5987 2.89607 16.4633C2.6323 16.1917 2.6323 15.7528 2.89607 15.4813L10.9913 7.14798C11.2551 6.87645 11.6814 6.87645 11.9452 7.14798C12.209 7.41951 12.209 7.8584 11.9452 8.12993L3.84996 16.464C3.71841 16.5987 3.54571 16.6667 3.37301 16.6667Z"
        fill="#99AAB5"
    />
    </g>
    <defs>
    <clipPath id="clip0_740_85">
        <rect width="24.2857" height="25" fill="white" />
    </clipPath>
    </defs>
</svg>