<svg
    width="24"
    height="25"
    viewBox="0 0 24 25"
    fill="none"
    xmlns="http://www.w3.org/2000/svg"
>
    <g clip-path="url(#clip0_740_204)">
    <path
        d="M4.98823 2.0835C3.88622 2.0835 2.99292 3.021 2.99292 4.16683V12.5002V16.6668V22.9168C2.99292 24.0627 3.88622 25.0002 4.98823 25.0002H18.9554C20.0578 25.0002 20.9507 24.0627 20.9507 22.9168V16.6668V12.5002V8.3335V4.16683C20.9507 3.021 20.0578 2.0835 18.9554 2.0835H14.9648H4.98823Z"
        fill="#BDC3C7"
    />
    <path
        d="M5.98593 0C5.43493 0 4.98828 0.416667 4.98828 1.04167V4.16667C4.98828 4.6875 5.43493 5.20833 5.98593 5.20833C6.53694 5.20833 6.98359 4.6875 6.98359 4.16667V1.04167C6.98359 0.416667 6.53694 0 5.98593 0ZM9.97654 0C9.42554 0 8.97889 0.416667 8.97889 1.04167V4.16667C8.97889 4.6875 9.42554 5.20833 9.97654 5.20833C10.5272 5.20833 10.9742 4.6875 10.9742 4.16667V1.04167C10.9742 0.416667 10.5272 0 9.97654 0ZM13.9672 0C13.4165 0 12.9695 0.416667 12.9695 1.04167V4.16667C12.9695 4.6875 13.4165 5.20833 13.9672 5.20833C14.5179 5.20833 14.9648 4.6875 14.9648 4.16667V1.04167C14.9648 0.416667 14.5179 0 13.9672 0ZM17.9578 0C17.4071 0 16.9601 0.416667 16.9601 1.04167V4.16667C16.9601 4.6875 17.4071 5.20833 17.9578 5.20833C18.5085 5.20833 18.9554 4.6875 18.9554 4.16667V1.04167C18.9554 0.416667 18.5085 0 17.9578 0Z"
        fill="#95A5A6"
    />
    <path
        d="M5.98584 15.625H17.9577V16.6667H5.98584V15.625Z"
        fill="#95A5A6"
    />
    <path
        d="M5.98584 12.5H17.9577V13.5417H5.98584V12.5Z"
        fill="#95A5A6"
    />
    <path
        d="M5.98584 9.375H17.9577V10.4167H5.98584V9.375Z"
        fill="#95A5A6"
    />
    <path
        d="M5.98584 18.75H9.97645V19.7917H5.98584V18.75Z"
        fill="#95A5A6"
    />
    <path
        d="M4.98828 4.1665C4.98828 4.68734 5.43493 5.20817 5.98593 5.20817C6.53694 5.20817 6.98359 4.68734 6.98359 4.1665H4.98828ZM8.97889 4.1665C8.97889 4.68734 9.42554 5.20817 9.97654 5.20817C10.5272 5.20817 10.9742 4.68734 10.9742 4.1665H8.97889ZM12.9695 4.1665C12.9695 4.68734 13.4165 5.20817 13.9672 5.20817C14.5179 5.20817 14.9648 4.68734 14.9648 4.1665H12.9695ZM16.9601 4.1665C16.9601 4.68734 17.4071 5.20817 17.9578 5.20817C18.5085 5.20817 18.9554 4.68734 18.9554 4.1665H16.9601Z"
        fill="#7F8C8D"
    />
    <path
        d="M2.99292 21.875V22.9167C2.99292 24.0625 3.88622 25 4.98823 25H18.9554C20.0578 25 20.9507 24.0625 20.9507 22.9167V21.875C20.9507 23.0208 20.0578 23.9583 18.9554 23.9583H4.98823C3.88622 23.9583 2.99292 23.0208 2.99292 21.875Z"
        fill="#95A5A6"
    />
    <path
        d="M19.1128 7.25684L11.1412 15.5801L10.6474 16.0957L9.94194 16.8323L9.94194 19.7786L12.7637 19.7786L13.4692 19.042L13.963 18.5264L21.9346 10.2031L19.1128 7.25684Z"
        fill="#ECF0F1"
    />
    <path
        d="M20.5237 8.72998L9.94193 19.7786L12.7637 19.7786L13.4692 19.042L13.963 18.5264L21.9346 10.2031L20.5237 8.72998Z"
        fill="#BDC3C7"
    />
    <path
        d="M18.4075 7.99316L21.2293 10.9395L13.4693 19.0418L10.6475 16.0955L18.4075 7.99316Z"
        fill="white"
    />
    <path
        d="M22.6401 6.52002C21.8606 5.70611 20.5943 5.70979 19.8183 6.52002L19.1129 7.25659L21.9347 10.2029L22.6401 9.46631C23.4161 8.65608 23.4197 7.33393 22.6401 6.52002Z"
        fill="#7F8C8D"
    />
    <path
        d="M9.93774 17.7114L9.94196 19.7783L11.9215 19.7827L10.9296 18.747L9.93774 17.7114Z"
        fill="#34495E"
    />
    <path
        d="M10.9297 18.7471L9.94204 19.7783L11.9215 19.7827L10.9297 18.7471Z"
        fill="#2C3E50"
    />
    <path
        d="M22.6401 6.52002C21.8606 5.70611 20.5943 5.70979 19.8183 6.52002L19.1129 7.25659L20.5238 8.72974L22.6401 6.52002Z"
        fill="#95A5A6"
    />
    <path
        d="M19.8184 9.46631L21.2293 10.9395L13.4693 19.0418L12.0584 17.5686L19.8184 9.46631Z"
        fill="#D35400"
    />
    </g>
    <defs>
    <clipPath id="clip0_740_204">
        <rect width="23.9437" height="25" fill="white" />
    </clipPath>
    </defs>
</svg>