<svg
              width="50"
              height="50"
              viewBox="0 0 50 50"
              fill="none"
              xmlns="http://www.w3.org/2000/svg"
            >
              <g clipPath="url(#clip0_728_3427)">
                <path
                  d="M17.0486 10.314C17.0486 10.314 14.5664 12.2247 12.5839 16.1413C12.5103 16.2863 12.4374 16.4343 12.3653 16.5849C10.3516 20.8006 18 16.9946 18 16.9946L18.3113 12.0321L17.0486 10.314Z"
                  fill="#330600"
                />
                <path
                  d="M19.3222 10.9808L27.327 10.314L29.0062 16.8997C29.0062 16.8997 33.7578 14.0196 36.8835 17.029C40.3702 20.3867 43.8568 33.431 43.8568 33.431L4.80042 34.535C4.80042 34.535 6.10428 20.3947 10.1517 17.5455C13.6383 15.0919 18.8202 17.2849 18.8202 17.2849L19.3222 10.9808Z"
                  fill="#EFB075"
                />
                <path
                  d="M28.5461 15.0969C28.5461 15.0969 27.9999 16.1131 25.1678 17.9686C22.3358 19.8241 19.0933 13.8575 19.0933 13.8575V13.0503C19.0933 13.0503 20.7916 17.5963 28.5461 15.0969Z"
                  fill="#BC8058"
                />
                <path
                  d="M34.301 26.1977L33.4694 22.4608C33.4694 22.4608 32.6889 19.4335 33.4694 19.5311C34.2499 19.6288 35.0746 21.6796 35.0746 21.6796L36.879 25.8765C36.879 25.8765 35.9146 26.6143 34.301 26.1977Z"
                  fill="#BC8058"
                />
                <path
                  d="M4.80042 34.9257C4.69285 34.9257 4.58947 34.8815 4.51546 34.8021C4.43917 34.7205 4.40102 34.6106 4.41132 34.4992C4.46549 33.9148 5.77965 20.1457 9.92699 17.2263C11.0901 16.4077 12.5416 15.9926 14.241 15.9926C16.0557 15.9926 17.6827 16.4645 18.4719 16.7372L18.9327 10.95C18.948 10.7592 19.0991 10.6074 19.2898 10.5918L27.2942 9.92496C27.4979 9.90207 27.6589 10.0329 27.7054 10.2175L29.261 16.318C30.014 15.9404 31.6032 15.2667 33.3489 15.2667C34.8534 15.2667 36.1336 15.7649 37.1544 16.7475C40.6792 20.1419 44.091 32.7933 44.2345 33.3304C44.265 33.4456 44.2413 33.5692 44.1696 33.6646C44.0987 33.7607 43.9873 33.8179 43.8675 33.8218L4.81148 34.9257C4.80767 34.9257 4.80424 34.9257 4.80042 34.9257ZM14.241 16.7739C12.7056 16.7739 11.4056 17.1408 10.3764 17.8649C6.91186 20.304 5.49546 31.7389 5.23492 34.1323L43.3472 33.055C42.6819 30.6838 39.6095 20.1964 36.6127 17.3106C35.7422 16.4725 34.6443 16.0479 33.3489 16.0479C31.1905 16.0479 29.2282 17.2221 29.2084 17.2339C29.1023 17.2984 28.9726 17.3083 28.8582 17.2614C28.7438 17.2145 28.6583 17.116 28.6278 16.9963L27.0302 10.7306L19.6854 11.3425L19.2097 17.3159C19.1998 17.4411 19.13 17.5536 19.0231 17.6188C18.9156 17.6841 18.7836 17.6936 18.668 17.6448C18.6474 17.636 16.576 16.7739 14.241 16.7739Z"
                  fill="#330600"
                />
                <path
                  d="M14.7186 16.2907C15.7928 22.5819 16.8549 29.924 16.8549 29.924L21.904 31.6406L17.3233 16.6847C17.3233 16.6847 16.497 15.8028 14.7186 16.2907Z"
                  fill="#EAD9C7"
                />
                <path
                  d="M21.904 32.0314C21.8617 32.0314 21.8193 32.0245 21.7781 32.0108L16.729 30.2942C16.5901 30.2469 16.4894 30.1256 16.4684 29.9798C16.4578 29.9066 15.3946 22.5706 14.3337 16.3564C14.2998 16.1584 14.4215 15.9673 14.6153 15.9139C15.0047 15.8071 15.3839 15.7529 15.7417 15.7529C16.9716 15.7529 17.5831 16.3907 17.6083 16.4178C17.6491 16.4613 17.6792 16.5136 17.6968 16.5704L22.2775 31.5263C22.3206 31.6667 22.2813 31.8193 22.176 31.9215C22.102 31.9932 22.0039 32.0314 21.904 32.0314ZM17.207 29.6312L21.307 31.0251L16.9815 16.9031C16.8415 16.7924 16.4394 16.5342 15.7417 16.5342C15.5575 16.5342 15.3648 16.5525 15.1657 16.5887C16.0999 22.0979 17.0197 28.3479 17.207 29.6312Z"
                  fill="#330600"
                />
                <path
                  d="M44.5793 31.4889C43.885 26.5184 41.9044 25.9622 39.7247 25.1321C38.3209 24.5973 36.4861 26.5558 34.7557 26.5184C31.8665 26.4574 30.941 27.3286 31.1722 29.0605C31.4033 30.7954 33.5991 38.1914 32.6752 39.232C31.7505 40.2727 46.2547 43.5007 44.5793 31.4889Z"
                  fill="#EFB075"
                />
                <path
                  d="M36.6081 32.1761C36.7859 32.9787 37.3703 36.6339 36.6081 39.0807C35.8459 41.5282 43.3624 38.8434 43.013 33.1938C42.6628 27.5443 36.145 30.0902 36.6081 32.1761Z"
                  fill="#BC8058"
                />
                <path
                  d="M17.3073 26.6089L17.9985 30.9927L21.3593 30.4907L19.6075 27.3444C19.6075 27.3444 19.0598 27.6129 17.3073 26.6089Z"
                  fill="#CEB197"
                />
                <path
                  d="M36.3747 40.6535C34.626 40.6535 32.6332 40.2445 32.3258 39.5609C32.2395 39.3687 32.2723 39.1589 32.4135 39.0002C32.9582 38.3868 31.8901 33.8488 31.3774 31.6683C31.1066 30.5186 30.893 29.6099 30.8258 29.1071C30.7114 28.2496 30.8609 27.5988 31.2836 27.1159C31.8512 26.4674 32.8659 26.166 34.478 26.166L34.7633 26.1691H34.7649C35.3241 26.1691 35.7941 25.9409 36.3373 25.6773C37.0529 25.3302 37.8647 24.9365 39.0244 24.9365C39.6568 24.9365 40.3168 25.0525 41.0439 25.2913C44.0109 26.2675 45.0638 29.5634 45.0638 32.0895C45.0638 35.171 44.0613 37.4819 42.0845 38.959C40.622 40.0515 38.5941 40.6535 36.3747 40.6535ZM33.033 39.3282C33.358 39.5487 34.5596 39.9538 36.3739 39.9538C37.5725 39.9538 39.8544 39.7524 41.6657 38.399C43.457 37.0608 44.3649 34.9383 44.3649 32.0895C44.3649 29.7968 43.438 26.8145 40.8257 25.9554C40.1703 25.7403 39.5813 25.6358 39.0244 25.6358C38.0257 25.6358 37.3222 25.9768 36.6425 26.3064C36.0466 26.5955 35.4843 26.8687 34.8023 26.8687L34.478 26.8649C33.1017 26.8649 32.2289 27.0975 31.81 27.5767C31.5277 27.8986 31.4324 28.3686 31.5186 29.0141C31.5811 29.4833 31.8024 30.4217 32.058 31.5081C32.9552 35.3197 33.5991 38.3379 33.033 39.3282Z"
                  fill="#330600"
                />
                <path
                  d="M33.2291 29.0339C30.1071 24.3681 22.0947 28.2099 20.4651 29.0339C18.8355 29.8548 15.509 29.146 13.3362 32.1627C11.1633 35.1793 7.70036 39.0467 9.87244 42.6127C12.0453 46.1802 23.317 50.8448 33.2291 40.9662C33.2291 40.9662 37.381 35.232 33.2291 29.0339Z"
                  fill="#EAD9C7"
                />
                <path
                  d="M20.0527 47.2831C20.0523 47.2831 20.0531 47.2831 20.0527 47.2831C14.9914 47.2831 10.8578 44.9814 9.53865 42.8154C7.46498 39.4111 10.1349 35.8223 12.2799 32.9384C12.5355 32.5943 12.785 32.2593 13.0192 31.9343C14.603 29.7348 16.7355 29.4006 18.449 29.132C19.1906 29.0161 19.8307 28.9154 20.2892 28.685C21.6633 27.9899 25.2071 26.374 28.421 26.374C30.7426 26.374 32.4692 27.1957 33.5541 28.8162C37.8075 35.1669 33.5884 41.1354 33.5457 41.1949C28.4958 46.2349 23.4245 47.2831 20.0527 47.2831ZM28.421 27.1553C25.375 27.1553 21.9658 28.7124 20.6413 29.3823C20.0729 29.6684 19.3428 29.7828 18.5699 29.9041C16.9186 30.1628 15.0463 30.4565 13.6532 32.3906C13.4167 32.7194 13.1649 33.0574 12.907 33.4045C10.7975 36.2404 8.40645 39.4546 10.2062 42.4095C11.2411 44.1086 14.9803 46.5019 20.0523 46.5019C23.2769 46.5019 28.1326 45.4933 32.9536 40.6891C33.0749 40.5113 36.8507 35.1417 32.9048 29.2511C31.974 27.8602 30.4657 27.1553 28.421 27.1553Z"
                  fill="#330600"
                />
                <path
                  d="M9.72137 38.2729C9.72137 38.2729 13.5117 40.3374 19.9951 40.3321C24.6826 37.9884 31.7154 30.9571 33.5701 34.7657C35.4248 38.5743 31.9092 41.4063 28.8818 43.3594C25.8545 45.3126 9.89609 49.202 9.72137 38.2729Z"
                  fill="#CEB197"
                />
                <path
                  d="M5.76172 31.761C5.76172 31.761 3.50876 39.5719 4.80042 41.8958C6.09131 44.2213 11.6943 46.8145 18.4166 46.6268C18.4166 46.6268 21.2578 46.0928 22.937 47.5744C24.6155 49.0545 27.4567 46.5231 27.9732 46.6268C28.4897 46.7306 30.2208 46.2148 30.2589 44.9224C30.2971 43.6315 29.4647 45.2146 27.964 44.0328C25.8789 42.391 26.165 41.5655 26.5526 40.0152C26.9402 38.4664 25.2609 39.1119 24.4865 40.92C24.4865 40.92 21.3867 40.679 19.9661 42.8015C18.5455 44.9224 13.2271 38.6587 10.5675 38.6587L13.5117 30.9927"
                  fill="#EFB075"
                />
                <path
                  d="M11.7271 33.6565L12.9608 25.9524C12.9608 25.9524 10.9459 21.6799 12.3444 22.4611C13.7421 23.2424 15.5975 24.7866 14.7186 28.2625V29.9242L11.7271 33.6565Z"
                  fill="#BC8058"
                />
                <path
                  d="M35.5873 26.3428C35.4012 26.3428 35.2356 26.2085 35.2028 26.0185C34.8709 24.0906 33.7204 21.8834 33.709 21.8613C33.6792 21.8052 33.6639 21.743 33.6639 21.6797V20.5078C33.6639 20.2919 33.8387 20.1172 34.0546 20.1172C34.2705 20.1172 34.4452 20.2919 34.4452 20.5078V21.5851C34.671 22.0287 35.6537 24.0349 35.9734 25.8858C36.01 26.0986 35.8673 26.3008 35.6544 26.3374C35.6323 26.3412 35.6094 26.3428 35.5873 26.3428Z"
                  fill="#330600"
                />
                <path
                  d="M13.512 31.3833C13.4968 31.3833 13.4811 31.3826 13.4651 31.3803C13.2511 31.3551 13.0981 31.1605 13.1237 30.9462L13.715 26.0099L13.1527 24.6988C13.0676 24.5005 13.1596 24.2708 13.3575 24.1858C13.5567 24.1003 13.7855 24.1922 13.8706 24.3906L14.4741 25.7978C14.5012 25.8612 14.5111 25.9306 14.5031 25.9985L13.8996 31.0392C13.8756 31.2376 13.707 31.3833 13.512 31.3833Z"
                  fill="#330600"
                />
                <path
                  d="M41.4986 38.4231C41.8327 35.9405 38.9122 35.5506 38.9122 37.3084L38.9534 37.8783C38.9534 37.8783 37.3116 36.2342 36.3541 36.6248C35.3966 37.0155 33.7303 38.578 33.1963 40.7264C32.6622 42.8748 35.1631 43.4608 36.3541 42.8748C37.545 42.2889 40.8623 43.151 41.4986 38.4231Z"
                  fill="#EFB075"
                />
                <path
                  d="M24.2134 48.4337C23.6725 48.4337 23.1445 48.2789 22.6788 47.8676C21.1647 46.5317 18.5143 47.0071 18.4883 47.0109C8.17072 47.3405 5.14642 43.3251 4.45901 42.0853C3.10861 39.6569 4.3667 34.3568 4.42087 34.1324C4.4716 33.9219 4.68256 33.799 4.89198 33.8441C5.10179 33.8952 5.23073 34.1057 5.17999 34.3156C5.16779 34.3674 3.93945 39.5432 5.14185 41.7061C5.77547 42.8475 8.60979 46.5607 18.4044 46.2365C18.4677 46.2189 21.3936 45.6917 23.1953 47.2817C24.186 48.1553 25.7897 47.2726 26.8494 46.6889C27.4376 46.3647 27.758 46.1838 28.0502 46.2441C28.225 46.2792 28.8979 46.1602 29.3923 45.7673C29.699 45.5239 29.8592 45.2355 29.8683 44.9113C29.8744 44.7068 29.8447 44.6488 29.8439 44.6465C29.8317 44.6625 29.6562 44.6801 29.5281 44.6931C29.0955 44.7365 28.4432 44.8029 27.7535 44.3619C25.417 42.8658 25.7347 41.6299 26.1032 40.1978L26.1734 39.9209C26.2528 39.6058 26.2047 39.5013 26.2039 39.5005C26.0887 39.5074 25.3342 39.9338 24.8455 41.0744C24.7795 41.2278 24.6258 41.3087 24.4568 41.3102C24.427 41.3056 21.5645 41.1149 20.2908 43.0192C20.0745 43.3419 19.7781 43.5395 19.4092 43.6059C18.2491 43.8157 16.5806 42.6179 14.8144 41.3506C13.311 40.2718 11.607 39.0496 10.5675 39.0496C10.4389 39.0496 10.3184 38.9863 10.2455 38.8802C10.1727 38.7742 10.1566 38.6391 10.2028 38.5186L13.147 30.8526C13.224 30.6519 13.4499 30.5504 13.6517 30.6283C13.8531 30.7053 13.9538 30.9319 13.8764 31.1333L11.1118 38.3309C12.3093 38.5918 13.7531 39.6279 15.2699 40.7159C16.7545 41.7809 18.4357 42.9841 19.27 42.8376C19.429 42.8086 19.5439 42.7308 19.6415 42.5843C20.9297 40.6594 23.4059 40.519 24.2413 40.5205C24.8264 39.3433 25.8194 38.5659 26.4954 38.7925C26.7082 38.8642 27.1752 39.1358 26.9318 40.1101L26.8601 40.3924C26.5083 41.7596 26.3146 42.5133 28.1746 43.7043C28.6347 43.9988 29.0672 43.953 29.4495 43.9164C29.7829 43.8821 30.1285 43.8485 30.3894 44.0911C30.6381 44.3223 30.6572 44.6831 30.6496 44.9341C30.6328 45.4919 30.3665 45.9916 29.8783 46.3792C29.2397 46.8865 28.3524 47.1009 27.8961 47.0101C27.8488 47.0299 27.504 47.2207 27.2263 47.3733C26.4412 47.8058 25.3018 48.4337 24.2134 48.4337Z"
                  fill="#330600"
                />
                <path
                  d="M35.3287 43.4793C34.4231 43.4793 33.6082 43.1284 33.1482 42.5402C32.8697 42.1839 32.5859 41.5636 32.8171 40.632C33.387 38.3402 35.1425 36.6976 36.2068 36.2635C36.8988 35.9812 37.9028 36.5122 38.5506 37.0111C38.6765 36.297 39.2227 35.8354 39.9651 35.8354C40.4968 35.8354 41.0118 36.0758 41.3788 36.4954C41.6847 36.8448 42.0204 37.4727 41.8854 38.4752C41.3551 42.415 39.0366 42.769 37.5023 43.0025C37.0956 43.0651 36.7439 43.1185 36.5265 43.2253C36.1885 43.3916 35.7742 43.4793 35.3287 43.4793ZM36.6791 36.9554C36.6112 36.9554 36.5532 36.9661 36.5013 36.9867C35.6163 37.3484 34.0736 38.8163 33.5754 40.8213C33.4503 41.3233 33.5136 41.7398 33.7639 42.0595C34.0721 42.4532 34.6718 42.6981 35.3287 42.6981C35.6506 42.6981 35.9535 42.6371 36.1816 42.5249C36.5074 42.3647 36.9141 42.3021 37.3848 42.2304C38.8435 42.0076 40.6593 41.7307 41.1118 38.3715C41.2071 37.6589 40.9897 37.2377 40.7906 37.0096C40.5754 36.7632 40.2664 36.6167 39.9651 36.6167C39.8094 36.6167 39.3028 36.6663 39.3028 37.3087L39.3433 37.8504C39.3547 38.0129 39.2639 38.1662 39.1159 38.2334C38.9687 38.3043 38.7924 38.27 38.6772 38.1548C38.2134 37.6909 37.2604 36.9554 36.6791 36.9554Z"
                  fill="#330600"
                />
                <path
                  d="M32.9201 1.69868C31.8138 5.25818 34.9419 12.2833 27.1675 15.1875C19.3947 18.0916 16.497 8.98438 16.497 8.98438C16.497 8.98438 13.1958 10.07 12.4176 5.40352C11.9362 2.51732 14.946 3.125 14.946 3.125L14.7186 -2.73438L32.7499 -2.34375L32.9201 1.69868Z"
                  fill="#EFB075"
                />
                <path
                  d="M24.4671 16.2228C19.8009 16.2228 16.9178 10.7857 16.2723 9.43188C16.077 9.46545 15.8085 9.49787 15.5014 9.49787C14.4894 9.49787 12.1246 9.1 12.027 5.41386C12.0029 4.50367 12.2246 3.80177 12.6858 3.32836C13.2584 2.74014 14.0415 2.66232 14.5378 2.68406L14.3284 -2.71908C14.3242 -2.82665 14.3646 -2.93155 14.4401 -3.00823C14.5153 -3.08491 14.6217 -3.12649 14.727 -3.12496L32.7583 -2.73433C32.9643 -2.72976 33.1314 -2.56611 33.1406 -2.36011L33.3107 1.68232C33.3122 1.72695 33.3061 1.77197 33.2931 1.81469C33.004 2.74395 33.0017 3.92994 32.9994 5.18574C32.9925 8.60981 32.9834 12.8716 27.3346 15.5407C26.3763 15.9935 25.4112 16.2228 24.4671 16.2228ZM16.4963 8.59417C16.6489 8.59417 16.7927 8.68382 16.8556 8.82954C16.8842 8.89591 19.7658 15.4416 24.4671 15.4416C25.2953 15.4416 26.1475 15.2375 27.0004 14.8343C32.2037 12.3764 32.2113 8.55526 32.2182 5.18383C32.2205 3.89561 32.2235 2.6772 32.5272 1.64875L32.3753 -1.9611L15.1249 -2.33494L15.3362 3.10978C15.3412 3.23109 15.2885 3.34744 15.1951 3.42526C15.1024 3.5027 14.9784 3.53359 14.8586 3.50575C14.8537 3.5046 13.8336 3.27038 13.2454 3.87348C12.9372 4.1901 12.7899 4.70165 12.8082 5.39326C12.8807 8.13984 14.3127 8.71662 15.5014 8.71662C16.0061 8.71662 16.3853 8.61019 16.3891 8.60905C16.4246 8.59875 16.4608 8.59417 16.4963 8.59417Z"
                  fill="#330600"
                />
                <path
                  d="M35.8261 28.7157C34.2773 28.7157 33.6922 28.1519 33.6624 27.6689C33.6418 27.331 33.889 27.0533 34.2506 27.0082C35.3493 26.8854 37.2658 26.5169 37.7449 26.0485C37.8975 25.8989 38.1309 25.8135 38.385 25.8135C38.7695 25.8135 39.2631 26.0286 39.4936 26.6336C39.6049 26.9236 39.5645 27.2432 39.3806 27.5316C39.0915 27.9848 38.3324 28.5547 36.3556 28.6959C36.1664 28.7096 35.9901 28.7157 35.8261 28.7157ZM34.4162 27.6934C34.5718 27.836 35.1158 28.084 36.3052 27.9985C38.1996 27.8627 38.6864 27.3195 38.7909 27.1562C38.8344 27.0868 38.8786 26.9838 38.8405 26.8831C38.7176 26.5604 38.5025 26.5123 38.385 26.5123C38.2942 26.5123 38.2416 26.5413 38.2324 26.5497C37.4748 27.289 34.9777 27.6255 34.4162 27.6934Z"
                  fill="#330600"
                />
                <path
                  d="M26.5472 27.3242C26.3756 27.3242 26.2176 27.2098 26.1703 27.0366C25.8049 25.6972 25.5047 24.9797 25.5016 24.9728C25.4177 24.7741 25.5108 24.5448 25.7091 24.4609C25.9071 24.3777 26.1375 24.4689 26.2207 24.6684C26.2337 24.6989 26.5434 25.4344 26.9241 26.8306C26.9806 27.0389 26.8585 27.254 26.6502 27.3105C26.6159 27.3196 26.5808 27.3242 26.5472 27.3242Z"
                  fill="#330600"
                />
                <path
                  d="M25.2762 13.4841C24.0162 13.4841 22.8806 13.0286 22.0295 12.1821L21.8967 12.2367C21.6976 12.3183 21.4687 12.2233 21.3871 12.0238C21.3051 11.8243 21.4005 11.5962 21.6 11.5142L21.9807 11.3577C22.1329 11.2944 22.3106 11.3349 22.4209 11.4596C23.1846 12.3183 24.276 12.7581 25.5005 12.6975C26.6327 12.6414 27.755 12.1447 28.2303 11.4897C28.3577 11.3143 28.6018 11.2761 28.7758 11.4028C28.9505 11.5294 28.9886 11.7739 28.862 11.9483C28.2478 12.7951 26.9127 13.4097 25.539 13.4776C25.4509 13.4822 25.3632 13.4841 25.2762 13.4841Z"
                  fill="#330600"
                />
                <path
                  d="M30.2521 7.18199C29.5029 7.18199 28.7956 6.80395 28.1502 6.0578C28.0189 5.90635 28.035 5.67671 28.1868 5.54548C28.3378 5.41464 28.5683 5.4299 28.6995 5.58248C29.2107 6.17338 29.7424 6.48313 30.2856 6.45452C31.1706 6.43507 31.8527 5.60308 31.8588 5.59469C31.9839 5.43638 32.2136 5.41082 32.3692 5.53518C32.5272 5.65954 32.5539 5.88804 32.4295 6.04559C32.3936 6.0906 31.5391 7.15376 30.3017 7.18122C30.2856 7.18161 30.2688 7.18199 30.2521 7.18199Z"
                  fill="#330600"
                />
                <path
                  d="M21.7251 6.73785C20.7809 6.73785 19.8574 6.31251 18.9789 5.47251C18.8362 5.33633 18.8313 5.1105 18.9674 4.96821C19.1044 4.8263 19.3298 4.82134 19.4717 4.95677C21.727 7.11283 23.4882 5.33824 23.5619 5.2608C23.6992 5.11965 23.9243 5.11508 24.0658 5.2505C24.2081 5.3863 24.2138 5.61099 24.0784 5.75327C24.0414 5.79218 23.1598 6.70428 21.801 6.73708C21.7754 6.73785 21.7503 6.73785 21.7251 6.73785Z"
                  fill="#330600"
                />
                <path
                  d="M18 2.96872C17.8478 2.96872 17.7032 2.87946 17.6403 2.7303C17.5564 2.53156 17.6491 2.30229 17.8478 2.21837C20.7165 1.00377 24.3748 2.15657 24.5293 2.20616C24.7345 2.27216 24.8474 2.49227 24.7814 2.6975C24.7154 2.90311 24.4957 3.01602 24.2901 2.95003C24.2546 2.93859 20.7512 1.83805 18.1522 2.93782C18.1026 2.9588 18.0511 2.96872 18 2.96872Z"
                  fill="#330600"
                />
                <path
                  d="M27.8473 3.1253C27.7306 3.1253 27.6154 3.07304 27.5383 2.97348C27.4063 2.80296 27.4376 2.55767 27.6085 2.42569C29.9263 0.634685 32.8064 2.06443 32.9269 2.12585C33.1192 2.22351 33.1955 2.45811 33.0978 2.65037C33.0002 2.84301 32.7652 2.91778 32.5737 2.8228C32.5478 2.80983 30.0095 1.55784 28.0861 3.04367C28.0151 3.0986 27.9312 3.1253 27.8473 3.1253Z"
                  fill="#330600"
                />
                <path
                  d="M26.4389 9.76676C26.2917 9.76676 26.1505 9.68284 26.0841 9.54017C25.9941 9.34448 26.0788 9.11216 26.2749 9.02175C26.3634 8.97903 26.6159 8.81576 26.6922 8.58802C26.7387 8.44764 26.7158 8.29086 26.6212 8.10889C26.1185 7.13844 26.5922 6.07566 26.6128 6.03103C26.7029 5.83457 26.9356 5.74798 27.1309 5.83762C27.3262 5.92727 27.4132 6.15806 27.3239 6.35413C27.3155 6.37473 26.992 7.12661 27.3155 7.74955C27.5589 8.2199 27.5124 8.60442 27.43 8.84437C27.2308 9.42573 26.667 9.70115 26.6029 9.73052C26.5495 9.75532 26.4938 9.76676 26.4389 9.76676Z"
                  fill="#330600"
                />
                <path
                  d="M34.8465 -2.32435C34.8465 -2.32435 36.6509 4.02331 34.5932 6.93583C33.5091 8.4701 32.2052 9.10296 32.2052 9.10296L32.5211 2.20027C32.5211 2.20027 28.4752 -0.723318 26.8784 -3.06707C25.2815 -5.41082 34.8465 -2.32435 34.8465 -2.32435Z"
                  fill="#330600"
                />
                <path
                  d="M18.3113 -0.781047L16.2109 3.32052V5.44034L14.7186 2.73458C14.7186 2.73458 12.3604 2.54384 12.4161 4.32798C12.4161 4.32798 9.76562 3.22286 10.9375 -2.14823C12.1094 -7.51933 18.3113 -0.781047 18.3113 -0.781047Z"
                  fill="#330600"
                />
              </g>
              <defs>
                <clipPath id="clip0_728_3427">
                  <rect width="50" height="50" fill="white" />
                </clipPath>
              </defs>
            </svg>