  <svg            
  width="25"
  height="25"
  viewBox="0 0 25 25"
  fill="none"
  xmlns="http://www.w3.org/2000/svg"
>
  <path
    d="M12.143 1.0415C12.4087 1.0415 12.6719 1.09539 12.9174 1.20009C13.163 1.30478 13.3861 1.45824 13.574 1.6517C13.7619 1.84515 13.911 2.07482 14.0127 2.32758C14.1144 2.58034 14.1668 2.85125 14.1668 3.12484V23.9582H10.1191V3.12484C10.1191 2.85125 10.1715 2.58034 10.2732 2.32758C10.3749 2.07482 10.524 1.84515 10.7119 1.6517C10.8998 1.45824 11.1229 1.30478 11.3685 1.20009C11.614 1.09539 11.8772 1.0415 12.143 1.0415Z"
    fill="#2B2C53"
  />
  <path
    d="M10.1191 3.125H12.143V23.9583H10.1191V3.125Z"
    fill="#6B6C87"
  />
  <path
    d="M20.2382 17.7085H4.04767C2.3711 17.7085 1.01196 19.1076 1.01196 20.8335V20.8335C1.01196 22.5594 2.3711 23.9585 4.04767 23.9585H20.2382C21.9147 23.9585 23.2739 22.5594 23.2739 20.8335C23.2739 19.1076 21.9147 17.7085 20.2382 17.7085Z"
    fill="#E41A67"
  />
  <path
    d="M17.2024 11.4585H7.08332C5.40674 11.4585 4.04761 12.8576 4.04761 14.5835V14.5835C4.04761 16.3094 5.40674 17.7085 7.08332 17.7085H17.2024C18.8789 17.7085 20.2381 16.3094 20.2381 14.5835C20.2381 12.8576 18.8789 11.4585 17.2024 11.4585Z"
    fill="#27B9D4"
  />
  <path
    d="M14.1666 5.2085H10.119C8.44239 5.2085 7.08325 6.6076 7.08325 8.33349V8.3335C7.08325 10.0594 8.44239 11.4585 10.119 11.4585H14.1666C15.8432 11.4585 17.2023 10.0594 17.2023 8.33349C17.2023 6.6076 15.8432 5.2085 14.1666 5.2085Z"
    fill="#EBAD1E"
  />
  <path
    d="M19.2262 20.8335C19.2262 20.4231 19.1477 20.0168 18.9952 19.6376C18.8426 19.2585 18.619 18.914 18.3371 18.6238C18.0552 18.3336 17.7206 18.1034 17.3523 17.9464C16.9839 17.7893 16.5892 17.7085 16.1905 17.7085H4.04768C3.24256 17.7085 2.47041 18.0377 1.9011 18.6238C1.3318 19.2098 1.01196 20.0047 1.01196 20.8335C1.01196 21.6623 1.3318 22.4572 1.9011 23.0432C2.47041 23.6293 3.24256 23.9585 4.04768 23.9585H16.1905C16.5892 23.9585 16.9839 23.8777 17.3523 23.7206C17.7206 23.5636 18.0552 23.3334 18.3371 23.0432C18.619 22.753 18.8426 22.4085 18.9952 22.0294C19.1477 21.6502 19.2262 21.2439 19.2262 20.8335Z"
    fill="#F73478"
  />
  <path
    d="M16.1905 14.5835C16.1905 14.1731 16.1119 13.7668 15.9594 13.3876C15.8068 13.0085 15.5832 12.664 15.3013 12.3738C15.0194 12.0836 14.6848 11.8534 14.3165 11.6964C13.9482 11.5393 13.5534 11.4585 13.1548 11.4585H7.08332C6.2782 11.4585 5.50605 11.7877 4.93675 12.3738C4.36744 12.9598 4.04761 13.7547 4.04761 14.5835C4.04761 15.4123 4.36744 16.2072 4.93675 16.7932C5.50605 17.3793 6.2782 17.7085 7.08332 17.7085H13.1548C13.5534 17.7085 13.9482 17.6277 14.3165 17.4706C14.6848 17.3136 15.0194 17.0834 15.3013 16.7932C15.5832 16.503 15.8068 16.1585 15.9594 15.7794C16.1119 15.4002 16.1905 14.9939 16.1905 14.5835Z"
    fill="#5BCADE"
  />
  <path
    d="M10.119 11.4585C11.7955 11.4585 13.1547 10.0594 13.1547 8.3335C13.1547 6.60761 11.7955 5.2085 10.119 5.2085C8.44239 5.2085 7.08325 6.60761 7.08325 8.3335C7.08325 10.0594 8.44239 11.4585 10.119 11.4585Z"
    fill="#F9C450"
  />
  <path
    d="M16.1904 18.75H4.04755C3.48869 18.75 3.03564 19.2164 3.03564 19.7917V19.7917C3.03564 20.367 3.48869 20.8333 4.04755 20.8333H16.1904C16.7493 20.8333 17.2023 20.367 17.2023 19.7917C17.2023 19.2164 16.7493 18.75 16.1904 18.75Z"
    fill="#F9578F"
  />
  <path
    d="M13.1549 12.5H7.08344C6.52458 12.5 6.07153 12.9664 6.07153 13.5417V13.5417C6.07153 14.117 6.52458 14.5833 7.08344 14.5833H13.1549C13.7137 14.5833 14.1668 14.117 14.1668 13.5417C14.1668 12.9664 13.7137 12.5 13.1549 12.5Z"
    fill="#B4E7F0"
  />
  <path
    d="M10.4551 8.67892C11.1525 7.96098 11.341 6.99098 10.876 6.51235C10.4111 6.03373 9.46877 6.22773 8.77134 6.94567C8.07392 7.6636 7.88546 8.63361 8.35041 9.11223C8.81536 9.59086 9.75765 9.39686 10.4551 8.67892Z"
    fill="#FDE7B8"
  />
  <path
    d="M6.07153 16.6665H14.1668V17.7082H6.07153V16.6665Z"
    fill="#009FC2"
  />
  <path
    d="M4.04761 22.9165H16.1905V23.9582H4.04761V22.9165Z"
    fill="#C2004F"
  />
  <path
    d="M10.1191 4.1665H12.143V5.20817H10.1191V4.1665Z"
    fill="#38395E"
  />
  <path
    d="M12.1428 4.1665H14.1666V5.20817H12.1428V4.1665Z"
    fill="#171843"
  />
  <path
    d="M9.10725 12.5H7.08344C6.52458 12.5 6.07153 12.9664 6.07153 13.5417V13.5417C6.07153 14.117 6.52458 14.5833 7.08344 14.5833H9.10725C9.66611 14.5833 10.1192 14.117 10.1192 13.5417C10.1192 12.9664 9.66611 12.5 9.10725 12.5Z"
    fill="#E3F6F9"
  />
  <path
    d="M6.07136 18.75H4.04755C3.48869 18.75 3.03564 19.2164 3.03564 19.7917V19.7917C3.03564 20.367 3.48869 20.8333 4.04755 20.8333H6.07136C6.63022 20.8333 7.08326 20.367 7.08326 19.7917C7.08326 19.2164 6.63022 18.75 6.07136 18.75Z"
    fill="#FED2E1"
  />
</svg>