<svg
    
    width="25"
    height="25"
    viewBox="0 0 25 25"
    fill="none"
    xmlns="http://www.w3.org/2000/svg"
>
    <path
    d="M11.1961 18.0723C10.976 17.4766 10.3025 17.1856 9.69533 17.4239L6.51163 18.67L8.4431 11.5919C8.5114 11.3438 8.50002 11.088 8.41274 10.8497C8.17937 10.2188 7.46598 9.91023 6.82089 10.1641L1.53685 12.2305C1.24466 12.3438 1.01129 12.5626 0.876581 12.8419C0.738076 13.1309 0.721 13.4532 0.829148 13.7481C1.04924 14.3458 1.72658 14.6387 2.33752 14.4005L5.41687 13.1954L3.46832 20.2344C3.39812 20.4884 3.40761 20.7501 3.49678 20.9923C3.67703 21.4805 4.14187 21.7774 4.64276 21.7774C4.79834 21.7774 4.95772 21.7481 5.1133 21.6876L10.4941 19.5821C11.1012 19.3438 11.4162 18.6661 11.1961 18.0723Z"
    fill="url(#paint0_linear_740_137)"
    />
    <path
    d="M17.5693 12.0743C17.463 11.4317 16.8426 11.004 16.188 11.1172L12.752 11.7188L16.0514 5.00591C16.1672 4.76958 16.2051 4.50981 16.1634 4.25395C16.0514 3.57231 15.3931 3.11919 14.6967 3.24028L8.99339 4.24223C8.67844 4.29692 8.40143 4.46684 8.2117 4.7227C8.01627 4.98638 7.93848 5.30473 7.98971 5.62309C8.09596 6.26958 8.72018 6.69927 9.37855 6.58403L12.7027 6.002L9.39183 12.6719C9.2723 12.9122 9.23246 13.1778 9.27609 13.4395C9.36337 13.9668 9.77319 14.3594 10.276 14.461C10.4316 14.4922 10.5966 14.4961 10.7655 14.4668L16.5732 13.4493C17.2278 13.334 17.6755 12.7168 17.5693 12.0743Z"
    fill="url(#paint1_linear_740_137)"
    />
    <path
    d="M23.5154 14.5432C23.4812 14.1272 23.1075 13.8186 22.6825 13.8557L20.455 14.0491L22.9158 9.94555C23.0031 9.80102 23.0411 9.63696 23.0278 9.4729C22.9917 9.03149 22.5952 8.70532 22.1455 8.74438L18.4514 9.06274C18.2484 9.08032 18.0625 9.17407 17.9278 9.32641C17.7893 9.48266 17.7229 9.68384 17.7399 9.88891C17.7741 10.3069 18.1498 10.6174 18.5767 10.5803L20.7301 10.3928L18.2636 14.467C18.1744 14.6135 18.1346 14.7815 18.1498 14.9495C18.1782 15.2913 18.4192 15.5647 18.7341 15.6584C18.8328 15.6877 18.9371 15.6995 19.0453 15.6897L22.8077 15.3635C23.2327 15.3284 23.5495 14.9592 23.5154 14.5432Z"
    fill="url(#paint2_linear_740_137)"
    />
    <defs>
    <linearGradient
        id="paint0_linear_740_137"
        x1="6.01291"
        y1="5.52011"
        x2="6.01291"
        y2="21.0806"
        gradientUnits="userSpaceOnUse"
    >
        <stop stop-color="#4FC3F7" />
        <stop offset="1" stop-color="#1E88E5" />
    </linearGradient>
    <linearGradient
        id="paint1_linear_740_137"
        x1="12.7797"
        y1="5.52009"
        x2="12.7797"
        y2="21.0805"
        gradientUnits="userSpaceOnUse"
    >
        <stop stop-color="#4FC3F7" />
        <stop offset="1" stop-color="#1E88E5" />
    </linearGradient>
    <linearGradient
        id="paint2_linear_740_137"
        x1="20.6273"
        y1="5.52028"
        x2="20.6273"
        y2="21.0807"
        gradientUnits="userSpaceOnUse"
    >
        <stop stop-color="#4FC3F7" />
        <stop offset="1" stop-color="#1E88E5" />
    </linearGradient>
    </defs>
</svg>