<svg
                  
    width="24"
    height="25"
    viewBox="0 0 24 25"
    fill="none"
    xmlns="http://www.w3.org/2000/svg"
>
    <g clip-path="url(#clip0_740_145)">
    <path
        d="M6.77157 0.830309C6.24312 -0.0388315 5.03191 -0.282972 4.24626 0.371325C1.6508 2.53441 0 5.76195 0 9.37523H11.9718L6.77157 0.830309ZM23.1954 4.68773H20.9507C19.2999 4.68773 17.9577 6.0891 17.9577 7.81273V10.9377H0C0 13.4084 1.07559 15.6448 2.81993 17.3196C1.20186 17.7541 0 19.2727 0 21.094C0 23.2522 1.67419 25.0002 3.7412 25.0002C5.80821 25.0002 7.48239 23.2522 7.48239 21.094C7.48239 20.6594 7.39822 20.2541 7.27663 19.8635C8.28675 20.1516 9.36235 20.3127 10.4754 20.3127C11.5884 20.3127 12.6686 20.1516 13.6741 19.8635C13.5478 20.2541 13.4683 20.6594 13.4683 21.094C13.4683 23.2522 15.1425 25.0002 17.2095 25.0002C19.2765 25.0002 20.9507 23.2522 20.9507 21.094C20.9507 19.2727 19.7488 17.7541 18.1308 17.3196C19.8751 15.6448 20.9507 13.4084 20.9507 10.9377V7.81273H23.1954C23.607 7.81273 23.9437 7.46117 23.9437 7.03148V5.46898C23.9437 5.03929 23.607 4.68773 23.1954 4.68773ZM3.7412 22.6565C2.91813 22.6565 2.24472 21.9534 2.24472 21.094C2.24472 20.2346 2.91813 19.5315 3.7412 19.5315C4.56426 19.5315 5.23768 20.2346 5.23768 21.094C5.23768 21.9534 4.56426 22.6565 3.7412 22.6565ZM18.706 21.094C18.706 21.9534 18.0326 22.6565 17.2095 22.6565C16.3864 22.6565 15.713 21.9534 15.713 21.094C15.713 20.2346 16.3864 19.5315 17.2095 19.5315C18.0326 19.5315 18.706 20.2346 18.706 21.094Z"
        fill="#4FC3F7"
    />
    </g>
    <defs>
    <clipPath id="clip0_740_145">
        <rect width="23.9437" height="25" fill="white" />
    </clipPath>
    </defs>
</svg>